<?xml version="1.0" encoding="UTF-8" standalone="no"?>
<svg
   xmlns:dc="http://purl.org/dc/elements/1.1/"
   xmlns:cc="http://creativecommons.org/ns#"
   xmlns:rdf="http://www.w3.org/1999/02/22-rdf-syntax-ns#"
   xmlns:svg="http://www.w3.org/2000/svg"
   xmlns="http://www.w3.org/2000/svg"
   xmlns:sodipodi="http://sodipodi.sourceforge.net/DTD/sodipodi-0.dtd"
   xmlns:inkscape="http://www.inkscape.org/namespaces/inkscape"
   width="210mm"
   height="297mm"
   viewBox="0 0 210 297"
   version="1.1"
   id="svg16"
   inkscape:version="1.0.2 (e86c870879, 2021-01-15)"
   sodipodi:docname="crop_reset.svg">
  <defs
     id="defs10" />
  <sodipodi:namedview
     id="base"
     pagecolor="#ffffff"
     bordercolor="#666666"
     borderopacity="1.0"
     inkscape:pageopacity="0.0"
     inkscape:pageshadow="2"
     inkscape:zoom="7.4056351"
     inkscape:cx="211.44753"
     inkscape:cy="272.65102"
     inkscape:document-units="mm"
     inkscape:current-layer="layer1"
     inkscape:document-rotation="0"
     showgrid="true"
     inkscape:lockguides="true"
     showguides="true"
     inkscape:window-width="2233"
     inkscape:window-height="1882"
     inkscape:window-x="43"
     inkscape:window-y="0"
     inkscape:window-maximized="0">
    <inkscape:grid
       type="xygrid"
       id="grid18" />
  </sodipodi:namedview>
  <metadata
     id="metadata13">
    <rdf:RDF>
      <cc:Work
         rdf:about="">
        <dc:format>image/svg+xml</dc:format>
        <dc:type
           rdf:resource="http://purl.org/dc/dcmitype/StillImage" />
        <dc:title />
      </cc:Work>
    </rdf:RDF>
  </metadata>
  <g
     inkscape:label="Layer 1"
     inkscape:groupmode="layer"
     id="layer1">
    <ellipse
       style="fill:none;fill-rule:evenodd;stroke:#000000;stroke-width:0.280731px;stroke-linecap:butt;stroke-linejoin:miter;stroke-opacity:1"
       id="path205"
       cx="58.949387"
       cy="69.470146"
       rx="13.770612"
       ry="14.307684" />
    <ellipse
       style="fill:none;fill-rule:evenodd;stroke:#000000;stroke-width:0.220338px;stroke-linecap:butt;stroke-linejoin:miter;stroke-opacity:1"
       id="path205-3"
       cx="58.765511"
       cy="69.372543"
       rx="10.808175"
       ry="11.229708" />
    <rect
       style="fill:#ff220d;fill-opacity:1;stroke:#000000;stroke-width:0.200928;stroke-opacity:1"
       id="rect1084"
       width="2.4634564"
       height="27.04096"
       x="88.466576"
       y="0.12352461"
       transform="matrix(0.75743724,0.65290798,-0.66483728,0.74698821,0,0)" />
    <path
       style="fill:#ff220d;fill-opacity:1;stroke:#000000;stroke-width:0.135032;stroke-opacity:1"
       d="m 218.26666,315.84889 c -23.88506,-2.37088 -42.97188,-21.17644 -46.37939,-45.69597 -0.52254,-3.76007 -0.63941,-9.07717 -0.28048,-12.76055 1.82214,-18.69907 12.73941,-34.93481 28.90312,-42.98359 2.49304,-1.24142 4.11607,-1.90753 6.81913,-2.79863 9.05089,-2.98375 18.35858,-3.31743 27.61071,-0.98984 10.65325,2.68006 20.2517,8.89176 27.30812,17.6726 11.63336,14.47628 15.07996,34.1902 9.08287,51.95241 -4.02067,11.90846 -11.98135,21.97387 -22.4464,28.38102 -6.06021,3.71032 -12.62679,6.02823 -19.95013,7.04212 -1.85591,0.25695 -8.72604,0.37315 -10.66755,0.18043 z m 9.92488,-11.18302 c 15.50799,-2.51625 27.98658,-13.34287 33.06835,-28.69064 1.45133,-4.38327 2.1131,-8.70169 2.1131,-13.78921 0,-5.09082 -0.596,-9.02162 -2.05765,-13.57075 -4.1198,-12.82225 -13.81558,-22.88465 -26.16964,-27.15918 -4.63297,-1.60302 -8.92851,-2.23786 -14.23207,-2.10338 -5.99691,0.15206 -11.08077,1.40595 -16.48778,4.06657 -4.23651,2.08465 -7.55077,4.45975 -10.94453,7.84319 -7.12839,7.10672 -11.36765,16.10397 -12.50257,26.535 -0.20431,1.87784 -0.20403,6.83184 4.9e-4,8.7771 1.05549,10.03878 5.14803,18.94488 11.96322,26.03412 6.55007,6.81346 15.01612,11.04616 24.514,12.25607 2.22465,0.28339 8.4766,0.16756 10.73507,-0.19889 z"
       id="path1086"
       transform="scale(0.26458333)" />
  </g>
</svg>
